# xmcd
#
# Track frame offsets:
#   150
#   14848
#   36445
#   52735
#   65887
#   80587
#   100300
#   115690
#   129207
#   143525
#   161987
#   180012
#   196344
#   210252
#   227087
#   241485
#   254312
#   268072
#   285887
#   306584
#   317852
#   332159
#
# Disc length: 4602 seconds
#
# Revision: 0
# Processed by: cddbd v1.4PL0 Copyright (c) Steve Scherf et al.
# Submitted via: uFREEDB 1.6.0
#
DISCID=3a11f816
DTITLE=Varios artistas - Orquestas Combos y grupos 1
DYEAR=1997
DGENRE=Blues
TTITLE0=Caminito de Guarenas
TTITLE1=Cuando florezcan las amapolas
TTITLE2=La pollera colora
TTITLE3=La subidora
TTITLE4=maquinolandera
TTITLE5=No exixte el amor
TTITLE6=Ole con ole
TTITLE7=Pensandolo bien
TTITLE8=Perfume de rosa
TTITLE9=Por caprichosa
TTITLE10=Pregones de san cristobal
TTITLE11=Que muchacho
TTITLE12=Que siga la fiesta
TTITLE13=Reboleatico
TTITLE14=Se me perdio la cadenita
TTITLE15=Sin corazon en el pecho
TTITLE16=Sueño de pescador
TTITLE17=Taboga
TTITLE18=Una sola bandera
TTITLE19=Vamonos de fiesta
TTITLE20=Veneracion
TTITLE21=Yolanda
EXTD=
EXTT0=
EXTT1=
EXTT2=
EXTT3=
EXTT4=
EXTT5=
EXTT6=
EXTT7=
EXTT8=
EXTT9=
EXTT10=
EXTT11=
EXTT12=
EXTT13=
EXTT14=
EXTT15=
EXTT16=
EXTT17=
EXTT18=
EXTT19=
EXTT20=
EXTT21=
PLAYORDER=
